name rise30.8019peak61.5557fall86.2505.mot
datacolumns 19
datarows 23
range 15.46660800000000 15.50327800000000
endheader
time	ground_force1_vx	ground_force1_vy	ground_force1_vz	ground_force1_px	ground_force1_py	ground_force1_pz	ground_force2_vx	ground_force2_vy	ground_force2_vz	ground_force2_px	ground_force2_py	ground_force2_pz	ground_torque1_x	ground_torque1_y	ground_torque1_z	ground_torque2_x	ground_torque2_y	ground_torque2_z	
15.46660800000000	-46.70947400000000	791.20819200000005	50.60148400000000	-0.00212800000000	0.00000000000000	0.10770100000000	0.00000000000000	0.00000000000000	0.00000000000000	0.00000000000000	0.00000000000000	0.00000000000000	0.00000000000000	9.62504600000000	0.00000000000000	0.00000000000000	0.00000000000000	0.00000000000000	
15.46827500000000	-47.08791100000000	789.44226200000003	50.40980700000000	-0.00291900000000	0.00000000000000	0.10762900000000	0.00000000000000	0.00000000000000	0.00000000000000	0.00000000000000	0.00000000000000	0.00000000000000	0.00000000000000	9.58097000000000	0.00000000000000	0.00000000000000	0.00000000000000	0.00000000000000	
15.46994300000000	-47.48933200000000	787.61629000000005	50.20118100000000	-0.00371200000000	0.00000000000000	0.10755400000000	0.00000000000000	0.00000000000000	0.00000000000000	0.00000000000000	0.00000000000000	0.00000000000000	0.00000000000000	9.54360700000000	0.00000000000000	0.00000000000000	0.00000000000000	0.00000000000000	
15.47160700000000	-47.91426900000000	785.73065999999994	49.97569000000000	-0.00450600000000	0.00000000000000	0.10747600000000	0.00000000000000	0.00000000000000	0.00000000000000	0.00000000000000	0.00000000000000	0.00000000000000	0.00000000000000	9.51312300000000	0.00000000000000	0.00000000000000	0.00000000000000	0.00000000000000	
15.47327500000000	-48.36320200000000	783.78565600000002	49.73343200000000	-0.00530200000000	0.00000000000000	0.10739300000000	0.00000000000000	0.00000000000000	0.00000000000000	0.00000000000000	0.00000000000000	0.00000000000000	0.00000000000000	9.48967000000000	0.00000000000000	0.00000000000000	0.00000000000000	0.00000000000000	
15.47494700000000	-48.83655500000000	781.78144899999995	49.47452600000000	-0.00609800000000	0.00000000000000	0.10730700000000	0.00000000000000	0.00000000000000	0.00000000000000	0.00000000000000	0.00000000000000	0.00000000000000	0.00000000000000	9.47338500000000	0.00000000000000	0.00000000000000	0.00000000000000	0.00000000000000	
15.47660900000000	-49.33469400000000	779.71809900000005	49.19910200000000	-0.00689600000000	0.00000000000000	0.10721700000000	0.00000000000000	0.00000000000000	0.00000000000000	0.00000000000000	0.00000000000000	0.00000000000000	0.00000000000000	9.46438800000000	0.00000000000000	0.00000000000000	0.00000000000000	0.00000000000000	
15.47827500000000	-49.85792200000000	777.59554800000001	48.90731000000000	-0.00769600000000	0.00000000000000	0.10712300000000	0.00000000000000	0.00000000000000	0.00000000000000	0.00000000000000	0.00000000000000	0.00000000000000	0.00000000000000	9.46278400000000	0.00000000000000	0.00000000000000	0.00000000000000	0.00000000000000	
15.47994500000000	-50.40648000000000	775.41361099999995	48.59931000000000	-0.00849600000000	0.00000000000000	0.10702600000000	-2.02506000000000	3.95502800000000	0.89332400000000	0.00000000000000	0.00000000000000	0.00000000000000	0.00000000000000	9.46865900000000	0.00000000000000	0.00000000000000	0.10053700000000	0.00000000000000	
15.48160800000000	-50.98054200000000	773.17197699999997	48.27527700000000	-0.00929700000000	0.00000000000000	0.10692400000000	-3.27871000000000	7.34525700000000	1.50409600000000	0.00000000000000	0.00000000000000	0.00000000000000	0.00000000000000	9.48208300000000	0.00000000000000	0.00000000000000	0.18377200000000	0.00000000000000	
15.48327400000000	-51.58020900000000	770.87020299999995	47.93540100000000	-0.01009900000000	0.00000000000000	0.10681900000000	-4.70607400000000	11.40357000000000	2.21092400000000	0.00000000000000	0.00000000000000	0.00000000000000	0.00000000000000	9.50311000000000	0.00000000000000	0.00000000000000	0.28267300000000	0.00000000000000	
15.48494500000000	-52.20551500000000	768.50771299999997	47.57988200000000	-0.01090300000000	0.00000000000000	0.10671100000000	-6.26705800000000	16.07627400000000	2.99720200000000	0.00000000000000	0.00000000000000	0.00000000000000	0.00000000000000	9.53177100000000	0.00000000000000	0.00000000000000	0.39563300000000	0.00000000000000	
15.48662000000000	-52.85641500000000	766.08379300000001	47.20893400000000	-0.01170700000000	0.00000000000000	0.10659900000000	-7.91088600000000	21.27899400000000	3.84090900000000	0.00000000000000	0.00000000000000	0.00000000000000	0.00000000000000	9.56808300000000	0.00000000000000	0.00000000000000	0.52025500000000	0.00000000000000	
15.48827600000000	-53.53278900000000	763.59759199999996	46.82277900000000	-0.01251100000000	0.00000000000000	0.10648300000000	-9.57948900000000	26.90288400000000	4.71607200000000	0.27649800000000	0.00000000000000	-0.06481300000000	0.00000000000000	9.61204300000000	0.00000000000000	0.00000000000000	1.33662000000000	0.00000000000000	
15.48994100000000	-54.23443800000000	761.04811900000004	46.42165300000000	-0.01331700000000	0.00000000000000	0.10636400000000	-11.21182400000000	32.82355700000000	5.59470200000000	0.27951000000000	0.00000000000000	-0.06512200000000	0.00000000000000	9.66362600000000	0.00000000000000	0.00000000000000	1.62561400000000	0.00000000000000	
15.49161200000000	-54.96108100000000	758.43424600000003	46.00580100000000	-0.01412400000000	0.00000000000000	0.10624200000000	-12.74855400000000	38.91156300000000	6.44894700000000	0.28230700000000	0.00000000000000	-0.06541200000000	0.00000000000000	9.72279100000000	0.00000000000000	0.00000000000000	1.91873900000000	0.00000000000000	
15.49327900000000	-55.71235500000000	755.75470299999995	45.57547800000000	-0.01493100000000	0.00000000000000	0.10611600000000	-14.13645900000000	45.04293500000000	7.25316600000000	0.28490800000000	0.00000000000000	-0.06568600000000	0.00000000000000	9.78947700000000	0.00000000000000	0.00000000000000	2.20825300000000	0.00000000000000	
15.49494700000000	-56.48781100000000	753.00808700000005	45.13094600000000	-0.01573900000000	0.00000000000000	0.10598700000000	-15.33201700000000	51.10840500000000	7.98565300000000	0.28733200000000	0.00000000000000	-0.06594800000000	0.00000000000000	9.86360000000000	0.00000000000000	0.00000000000000	2.48712500000000	0.00000000000000	
15.49660700000000	-57.28691400000000	750.19285600000001	44.67247900000000	-0.01654700000000	0.00000000000000	0.10585500000000	-16.30378500000000	57.02033900000000	8.62985100000000	0.28959200000000	0.00000000000000	-0.06619800000000	0.00000000000000	9.94505900000000	0.00000000000000	0.00000000000000	2.74946500000000	0.00000000000000	
15.49827600000000	-58.10903900000000	747.30733699999996	44.20035800000000	-0.01735600000000	0.00000000000000	0.10572000000000	-17.03347800000000	62.71690000000000	9.17497200000000	0.29170100000000	0.00000000000000	-0.06644000000000	0.00000000000000	10.03373200000000	0.00000000000000	0.00000000000000	2.99080200000000	0.00000000000000	
15.49994700000000	-58.95347600000000	744.34973100000002	43.71487100000000	-0.01816600000000	0.00000000000000	0.10558200000000	-17.51580700000000	68.16346299999999	9.61605300000000	0.29367000000000	0.00000000000000	-0.06667400000000	0.00000000000000	10.12947600000000	0.00000000000000	0.00000000000000	3.20820700000000	0.00000000000000	
15.50161200000000	-59.81942200000000	741.31811000000005	43.21631600000000	-0.01897700000000	0.00000000000000	0.10544100000000	-17.75727500000000	73.35154199999999	9.95352000000000	0.29550800000000	0.00000000000000	-0.06690200000000	0.00000000000000	10.23212900000000	0.00000000000000	0.00000000000000	3.40026200000000	0.00000000000000	
15.50327800000000	-60.70598200000000	738.21042899999998	42.70499600000000	-0.01978800000000	0.00000000000000	0.10529700000000	-17.77420400000000	78.29575199999999	10.19239000000000	0.29722400000000	0.00000000000000	-0.06712300000000	0.00000000000000	10.34150800000000	0.00000000000000	0.00000000000000	3.56691400000000	0.00000000000000	
